<svg xmlns="http://www.w3.org/2000/svg" width="266" height="269" viewBox="0 0 266 269" fill="none"><path d="M133.176 2L247.696 68.1176V200.353L133.176 266.471L18.6573 200.353V68.1176L133.176 2Z" fill="white" stroke="#36C2B4" stroke-width="3"></path><path d="M103.969 72.4157V61.4248C103.969 56.9597 100.741 55.4141 97.0655 55.4141C94.4207 55.4141 92.0165 56.2727 90.093 58.0931L91.57 60.6004C93.0125 59.1922 94.6268 58.5053 96.4816 58.5053C98.7828 58.5053 100.363 59.6731 100.363 61.5965V64.0695C99.1606 62.6612 97.2372 61.94 95.0046 61.94C92.2912 61.94 89.2344 63.5199 89.2344 67.3324C89.2344 71.0075 92.2912 72.8279 95.0046 72.8279C97.2028 72.8279 99.1263 72.0379 100.363 70.6297V72.4157H103.969ZM100.363 68.6376C99.5384 69.771 97.9928 70.3549 96.4129 70.3549C94.3864 70.3549 92.8751 69.1871 92.8751 67.4011C92.8751 65.5807 94.3864 64.4129 96.4129 64.4129C97.9928 64.4129 99.5384 64.9968 100.363 66.1303V68.6376Z" fill="#232F3E"></path><path d="M126.883 72.4157L132.035 55.8262H128.291L124.788 67.882L120.838 55.8262H117.678L113.728 67.882L110.225 55.8262H106.481L111.633 72.4157H115.411L119.258 60.257L123.105 72.4157H126.883Z" fill="#232F3E"></path><path d="M133.097 70.2519C134.814 71.9349 137.39 72.8279 140.206 72.8279C144.672 72.8279 147.11 70.5954 147.11 67.6759C147.11 63.7603 143.572 62.936 140.687 62.3178C138.729 61.8713 137.081 61.4248 137.081 60.1539C137.081 58.9861 138.283 58.2992 140.172 58.2992C142.233 58.2992 144.088 59.1579 145.084 60.2913L146.595 57.7496C145.084 56.4101 142.954 55.4141 140.138 55.4141C135.947 55.4141 133.612 57.7496 133.612 60.463C133.612 64.1725 137.012 64.9281 139.863 65.5464C141.889 65.9929 143.641 66.5081 143.641 67.9507C143.641 69.1871 142.542 69.9771 140.378 69.9771C138.214 69.9771 135.913 68.8437 134.745 67.6415L133.097 70.2519Z" fill="#232F3E"></path><path d="M83.4341 144.867C88.38 144.867 90.7706 142.339 90.7706 138.987C90.7706 132.145 80.2467 134.096 80.2467 131.183C80.2467 130.084 81.1809 129.342 82.857 129.342C84.7255 129.342 86.7039 129.974 88.1877 131.348L90.3584 128.49C88.5449 126.814 86.1269 125.935 83.2143 125.935C78.9003 125.935 76.2625 128.463 76.2625 131.513C76.2625 138.41 86.8138 136.184 86.8138 139.426C86.8138 140.47 85.7697 141.46 83.6264 141.46C81.0985 141.46 79.0926 140.333 77.8012 138.987L75.6854 141.954C77.389 143.685 79.917 144.867 83.4341 144.867Z" fill="#545B64"></path><path d="M99.4702 144.867C103.867 144.867 106.504 141.679 106.504 137.887C106.504 134.123 103.867 130.936 99.4702 130.936C95.1013 130.936 92.4634 134.123 92.4634 137.887C92.4634 141.679 95.1013 144.867 99.4702 144.867ZM99.4702 141.762C97.2995 141.762 96.0904 139.976 96.0904 137.887C96.0904 135.827 97.2995 134.041 99.4702 134.041C101.641 134.041 102.877 135.827 102.877 137.887C102.877 139.976 101.641 141.762 99.4702 141.762Z" fill="#545B64"></path><path d="M112.583 144.537V126.21H109.093V144.537H112.583Z" fill="#545B64"></path><path d="M128.49 144.537V131.265H125.001V140.251C124.396 141.02 123.325 141.762 121.978 141.762C120.495 141.762 119.533 141.157 119.533 139.316V131.265H116.043V140.69C116.043 143.273 117.417 144.867 120.33 144.867C122.5 144.867 124.094 143.878 125.001 142.861V144.537H128.49Z" fill="#545B64"></path><path d="M136.407 144.867C137.863 144.867 138.797 144.482 139.319 144.015L138.577 141.377C138.385 141.569 137.891 141.762 137.368 141.762C136.599 141.762 136.159 141.13 136.159 140.306V134.315H138.852V131.265H136.159V127.638H132.642V131.265H130.444V134.315H132.642V141.24C132.642 143.603 133.961 144.867 136.407 144.867Z" fill="#545B64"></path><path d="M142.971 129.837C144.125 129.837 145.059 128.902 145.059 127.748C145.059 126.594 144.125 125.688 142.971 125.688C141.844 125.688 140.883 126.594 140.883 127.748C140.883 128.902 141.844 129.837 142.971 129.837ZM144.729 144.537V131.265H141.24V144.537H144.729Z" fill="#545B64"></path><path d="M154.345 144.867C158.741 144.867 161.379 141.679 161.379 137.887C161.379 134.123 158.741 130.936 154.345 130.936C149.976 130.936 147.338 134.123 147.338 137.887C147.338 141.679 149.976 144.867 154.345 144.867ZM154.345 141.762C152.174 141.762 150.965 139.976 150.965 137.887C150.965 135.827 152.174 134.041 154.345 134.041C156.515 134.041 157.752 135.827 157.752 137.887C157.752 139.976 156.515 141.762 154.345 141.762Z" fill="#545B64"></path><path d="M176.415 144.537V135.167C176.415 132.584 175.014 130.936 172.101 130.936C169.93 130.936 168.309 131.98 167.457 132.997V131.265H163.968V144.537H167.457V135.607C168.034 134.81 169.106 134.041 170.48 134.041C171.964 134.041 172.925 134.673 172.925 136.514V144.537H176.415Z" fill="#545B64"></path><path d="M184.661 144.867C188.343 144.867 190.404 143.026 190.404 140.608C190.404 135.25 182.545 136.898 182.545 134.92C182.545 134.178 183.37 133.601 184.634 133.601C186.255 133.601 187.766 134.288 188.563 135.14L189.964 132.749C188.645 131.705 186.859 130.936 184.606 130.936C181.116 130.936 179.166 132.887 179.166 135.112C179.166 140.333 187.052 138.547 187.052 140.745C187.052 141.569 186.337 142.174 184.826 142.174C183.177 142.174 181.199 141.267 180.237 140.36L178.726 142.806C180.127 144.097 182.353 144.867 184.661 144.867Z" fill="#545B64"></path><path d="M95.7034 174.591L88.6417 156.263H83.7507L76.6615 174.591H81.1129L82.2669 171.486H90.1255L91.2521 174.591H95.7034ZM89.0539 168.051H83.3385L86.1962 160.165L89.0539 168.051Z" fill="#545B64"></path><path d="M100.803 174.591V165.825C101.38 164.973 102.919 164.314 104.073 164.314C104.458 164.314 104.787 164.341 105.035 164.396V160.989C103.386 160.989 101.737 161.951 100.803 163.132V161.319H97.3134V174.591H100.803Z" fill="#545B64"></path><path d="M113.397 174.92C116.118 174.92 117.766 173.739 118.646 172.502L116.365 170.386C115.733 171.266 114.771 171.815 113.562 171.815C111.446 171.815 109.963 170.249 109.963 167.941C109.963 165.633 111.446 164.094 113.562 164.094C114.771 164.094 115.733 164.589 116.365 165.523L118.646 163.38C117.766 162.171 116.118 160.989 113.397 160.989C109.303 160.989 106.363 163.874 106.363 167.941C106.363 172.035 109.303 174.92 113.397 174.92Z" fill="#545B64"></path><path d="M133.402 174.591V165.166C133.402 162.583 132 160.989 129.088 160.989C126.917 160.989 125.268 162.033 124.416 163.05V156.263H120.927V174.591H124.416V165.66C125.021 164.863 126.093 164.094 127.439 164.094C128.95 164.094 129.912 164.671 129.912 166.512V174.591H133.402Z" fill="#545B64"></path><path d="M138.597 159.89C139.751 159.89 140.685 158.956 140.685 157.802C140.685 156.648 139.751 155.741 138.597 155.741C137.47 155.741 136.509 156.648 136.509 157.802C136.509 158.956 137.47 159.89 138.597 159.89ZM140.356 174.591V161.319H136.866V174.591H140.356Z" fill="#545B64"></path><path d="M148.267 174.92C149.723 174.92 150.658 174.536 151.18 174.068L150.438 171.431C150.246 171.623 149.751 171.815 149.229 171.815C148.459 171.815 148.02 171.183 148.02 170.359V164.369H150.713V161.319H148.02V157.692H144.503V161.319H142.305V164.369H144.503V171.293C144.503 173.656 145.822 174.92 148.267 174.92Z" fill="#545B64"></path><path d="M159.338 174.92C161.398 174.92 163.487 174.288 164.806 173.079L163.267 170.826C162.415 171.65 160.849 172.145 159.722 172.145C157.469 172.145 156.123 170.744 155.903 169.068H165.767V168.298C165.767 163.957 163.075 160.989 159.118 160.989C155.079 160.989 152.248 164.094 152.248 167.941C152.248 172.2 155.298 174.92 159.338 174.92ZM162.388 166.704H155.848C156.013 165.386 156.947 163.764 159.118 163.764C161.426 163.764 162.305 165.441 162.388 166.704Z" fill="#545B64"></path><path d="M174.47 174.92C177.191 174.92 178.839 173.739 179.719 172.502L177.438 170.386C176.806 171.266 175.844 171.815 174.635 171.815C172.519 171.815 171.036 170.249 171.036 167.941C171.036 165.633 172.519 164.094 174.635 164.094C175.844 164.094 176.806 164.589 177.438 165.523L179.719 163.38C178.839 162.171 177.191 160.989 174.47 160.989C170.376 160.989 167.436 163.874 167.436 167.941C167.436 172.035 170.376 174.92 174.47 174.92Z" fill="#545B64"></path><path d="M186.451 174.92C187.907 174.92 188.842 174.536 189.364 174.068L188.622 171.431C188.43 171.623 187.935 171.815 187.413 171.815C186.644 171.815 186.204 171.183 186.204 170.359V164.369H188.897V161.319H186.204V157.692H182.687V161.319H180.489V164.369H182.687V171.293C182.687 173.656 184.006 174.92 186.451 174.92Z" fill="#545B64"></path><path d="M92.5635 94.9274C92.5635 98.3174 94.7995 101.034 98.2135 101.034C100.233 101.034 101.387 100.241 102.325 99.0387L101.459 98.2693C100.618 99.4234 99.5599 99.9042 98.2857 99.9042C95.5688 99.9042 93.9099 97.7163 93.9099 94.9274C93.9099 92.1384 95.5688 89.9745 98.2857 89.9745C99.5599 89.9745 100.618 90.4314 101.459 91.5854L102.325 90.816C101.387 89.6379 100.233 88.8445 98.2135 88.8445C94.7995 88.8445 92.5635 91.5373 92.5635 94.9274Z" fill="#232F3E"></path><path d="M104.444 94.9274C104.444 98.5097 106.872 101.034 110.262 101.034C112.186 101.034 113.652 100.361 114.806 99.1589L114.157 98.3414C113.172 99.3993 111.825 99.9523 110.359 99.9523C107.618 99.9523 105.935 97.8606 105.814 95.3361H115.528V94.9995C115.528 91.6575 113.58 88.8445 110.046 88.8445C106.824 88.8445 104.444 91.5614 104.444 94.9274ZM110.022 89.9265C112.931 89.9265 114.229 92.3788 114.253 94.3503H105.814C105.911 92.3307 107.281 89.9265 110.022 89.9265Z" fill="#232F3E"></path><path d="M120.009 100.746V92.2827C120.538 91.2729 122.125 90.215 123.303 90.215C123.543 90.215 123.711 90.215 123.928 90.2631V88.8926C122.317 88.8926 120.995 89.8303 120.009 91.1286V89.1331H118.759V100.746H120.009Z" fill="#232F3E"></path><path d="M128.914 101.034C129.876 101.034 130.429 100.746 130.885 100.313L130.405 99.3512C130.14 99.6397 129.659 99.9042 129.106 99.9042C128.289 99.9042 127.904 99.2551 127.904 98.3174V90.239H130.26V89.1331H127.904V85.9594H126.63V89.1331H124.706V90.239H126.63V98.5097C126.63 100.097 127.375 101.034 128.914 101.034Z" fill="#232F3E"></path><path d="M133.636 87.1615C134.165 87.1615 134.597 86.7288 134.597 86.1998C134.597 85.6709 134.165 85.2381 133.636 85.2381C133.131 85.2381 132.674 85.6709 132.674 86.1998C132.674 86.7288 133.131 87.1615 133.636 87.1615ZM134.261 100.746V89.1331H133.011V100.746H134.261Z" fill="#232F3E"></path><path d="M139.811 90.239H142.168V89.1331H139.811V88.0752C139.811 86.4643 140.509 85.5507 141.831 85.5507C142.288 85.5507 142.6 85.6468 142.889 85.8151L143.274 84.8294C142.817 84.5649 142.288 84.4688 141.711 84.4688C139.787 84.4688 138.561 85.7911 138.561 88.0752V89.1331H136.638V90.239H138.561V100.746H139.811V90.239ZM145.149 87.1615C145.678 87.1615 146.111 86.7288 146.111 86.1998C146.111 85.6709 145.678 85.2381 145.149 85.2381C144.644 85.2381 144.187 85.6709 144.187 86.1998C144.187 86.7288 144.644 87.1615 145.149 87.1615ZM145.774 100.746V89.1331H144.524V100.746H145.774Z" fill="#232F3E"></path><path d="M148.961 94.9274C148.961 98.5097 151.389 101.034 154.779 101.034C156.702 101.034 158.169 100.361 159.323 99.1589L158.674 98.3414C157.688 99.3993 156.342 99.9523 154.875 99.9523C152.134 99.9523 150.451 97.8606 150.331 95.3361H160.044V94.9995C160.044 91.6575 158.097 88.8445 154.563 88.8445C151.341 88.8445 148.961 91.5614 148.961 94.9274ZM154.539 89.9265C157.448 89.9265 158.746 92.3788 158.77 94.3503H150.331C150.427 92.3307 151.798 89.9265 154.539 89.9265Z" fill="#232F3E"></path><path d="M173.109 100.746V84.7092H171.835V91.0084C170.897 89.686 169.454 88.8445 167.795 88.8445C164.718 88.8445 162.602 91.2729 162.602 94.9514C162.602 98.678 164.718 101.034 167.795 101.034C169.526 101.034 171.017 100.097 171.835 98.8944V100.746H173.109ZM171.835 97.8365C171.161 98.9425 169.647 99.9042 168.012 99.9042C165.439 99.9042 163.949 97.7644 163.949 94.9514C163.949 92.1384 165.439 89.9745 168.012 89.9745C169.647 89.9745 171.161 90.9603 171.835 92.0903V97.8365Z" fill="#232F3E"></path><path d="M65.6946 212.374V207.823H68.8716C71.1385 207.823 72.4609 206.243 72.4609 204.371C72.4609 202.499 71.1729 200.919 68.8716 200.919H64.2692V212.374H65.6946ZM68.6999 206.552H65.6946V202.19H68.6999C70.0566 202.19 70.984 203.083 70.984 204.371C70.984 205.659 70.0566 206.552 68.6999 206.552Z" fill="#545B64"></path><path d="M84.3778 212.374L81.2865 207.703C82.8493 207.565 84.2575 206.432 84.2575 204.371C84.2575 202.259 82.7635 200.919 80.6683 200.919H76.0658V212.374H77.4912V207.823H79.7753L82.6948 212.374H84.3778ZM80.4966 206.569H77.4912V202.19H80.4966C81.8533 202.19 82.7806 203.083 82.7806 204.371C82.7806 205.659 81.8533 206.569 80.4966 206.569Z" fill="#545B64"></path><path d="M93.4522 212.58C96.8353 212.58 99.1366 210.038 99.1366 206.655C99.1366 203.272 96.8353 200.73 93.4522 200.73C90.0518 200.73 87.7678 203.272 87.7678 206.655C87.7678 210.038 90.0518 212.58 93.4522 212.58ZM93.4522 211.309C90.8761 211.309 89.2447 209.317 89.2447 206.655C89.2447 203.976 90.8761 202.001 93.4522 202.001C96.011 202.001 97.6596 203.976 97.6596 206.655C97.6596 209.317 96.011 211.309 93.4522 211.309Z" fill="#545B64"></path><path d="M104.506 212.374V207.153H110.465V205.882H104.506V202.19H110.585V200.919H103.08V212.374H104.506Z" fill="#545B64"></path><path d="M121.745 212.374V211.103H115.665V207.153H121.624V205.882H115.665V202.19H121.745V200.919H114.24V212.374H121.745Z" fill="#545B64"></path><path d="M129.444 212.58C132.535 212.58 133.669 210.88 133.669 209.214C133.669 204.938 126.885 206.415 126.885 203.839C126.885 202.757 127.864 202.018 129.238 202.018C130.492 202.018 131.694 202.448 132.552 203.392L133.411 202.345C132.449 201.332 131.093 200.748 129.341 200.748C127.091 200.748 125.408 202.036 125.408 203.925C125.408 208.012 132.192 206.381 132.192 209.334C132.192 210.21 131.539 211.309 129.496 211.309C127.881 211.309 126.645 210.519 125.889 209.678L125.048 210.76C125.992 211.824 127.452 212.58 129.444 212.58Z" fill="#545B64"></path><path d="M141.224 212.58C144.315 212.58 145.449 210.88 145.449 209.214C145.449 204.938 138.665 206.415 138.665 203.839C138.665 202.757 139.644 202.018 141.018 202.018C142.271 202.018 143.474 202.448 144.332 203.392L145.191 202.345C144.229 201.332 142.873 200.748 141.121 200.748C138.871 200.748 137.188 202.036 137.188 203.925C137.188 208.012 143.972 206.381 143.972 209.334C143.972 210.21 143.319 211.309 141.275 211.309C139.661 211.309 138.425 210.519 137.669 209.678L136.828 210.76C137.772 211.824 139.232 212.58 141.224 212.58Z" fill="#545B64"></path><path d="M150.72 212.374V200.919H149.294V212.374H150.72Z" fill="#545B64"></path><path d="M160.341 212.58C163.724 212.58 166.026 210.038 166.026 206.655C166.026 203.272 163.724 200.73 160.341 200.73C156.941 200.73 154.657 203.272 154.657 206.655C154.657 210.038 156.941 212.58 160.341 212.58ZM160.341 211.309C157.765 211.309 156.134 209.317 156.134 206.655C156.134 203.976 157.765 202.001 160.341 202.001C162.9 202.001 164.549 203.976 164.549 206.655C164.549 209.317 162.9 211.309 160.341 211.309Z" fill="#545B64"></path><path d="M179.449 212.374V200.919H178.024V209.867L171.429 200.919H169.97V212.374H171.395V203.238L178.075 212.374H179.449Z" fill="#545B64"></path><path d="M193.652 212.374L189.032 200.919H187.263L182.661 212.374H184.292L185.306 209.832H191.007L192.02 212.374H193.652ZM190.578 208.562H185.718L188.156 202.396L190.578 208.562Z" fill="#545B64"></path><path d="M203.616 212.374V211.103H198.292V200.919H196.867V212.374H203.616Z" fill="#545B64"></path><path d="M164.088 50.9453L174.499 56.956V68.9774L164.088 74.9881L153.677 68.9774V56.956L164.088 50.9453Z" fill="#F7981D"></path><path fill-rule="evenodd" clip-rule="evenodd" d="M171.088 58.6374L163.575 67.6534L161.758 67.816L157.25 64.0379L158.905 62.0636L162.423 65.0121L169.109 56.9883L171.088 58.6374Z" fill="#232F3E"></path><path fill-rule="evenodd" clip-rule="evenodd" d="M204.446 113.632H60.1891V112.773H204.446V113.632Z" fill="#232F3E"></path><path fill-rule="evenodd" clip-rule="evenodd" d="M204.446 189.191H60.1891V188.332H204.446V189.191Z" fill="#232F3E"></path></svg>