<?xml version="1.0" standalone="no"?>
<!DOCTYPE svg PUBLIC "-//W3C//DTD SVG 20010904//EN"
 "http://www.w3.org/TR/2001/REC-SVG-20010904/DTD/svg10.dtd">
<svg version="1.0" xmlns="http://www.w3.org/2000/svg"
 width="1024.000000pt" height="1024.000000pt" viewBox="0 0 1024.000000 1024.000000"
 preserveAspectRatio="xMidYMid meet">

<g transform="translate(0.000000,1024.000000) scale(0.100000,-0.100000)"
fill="#000000" stroke="none">
<path d="M1402 8607 c-49 -15 -122 -85 -148 -142 l-24 -50 0 -1426 c0 -1588
-5 -1483 70 -1578 28 -35 58 -59 107 -83 l68 -33 1840 0 1840 0 57 28 c62 30
115 83 150 149 l23 43 3 1443 c1 977 -1 1456 -8 1483 -16 58 -68 119 -129 151
l-53 28 -1882 -1 c-1286 -1 -1891 -4 -1914 -12z m245 -261 c61 -53 21 -156
-62 -156 -21 0 -44 9 -62 24 -61 53 -21 156 62 156 21 0 44 -9 62 -24z m314
-5 c60 -60 22 -150 -64 -151 -52 0 -87 35 -87 88 0 85 91 123 151 63z m308 3
c64 -54 27 -154 -56 -154 -86 1 -124 91 -64 151 37 37 79 38 120 3z m3059
-1591 l-3 -1208 -29 -53 c-16 -28 -44 -63 -62 -77 -76 -58 41 -55 -1916 -55
-1292 0 -1812 3 -1843 11 -56 14 -131 79 -156 134 -18 38 -19 98 -19 1248 l0
1207 2015 0 2015 0 -2 -1207z"/>
<path d="M1672 7511 c-8 -4 -12 -19 -10 -32 l3 -24 986 -3 c1065 -2 1027 -4
999 47 -11 21 -11 21 -988 21 -537 0 -983 -4 -990 -9z"/>
<path d="M1664 7145 c-9 -23 2 -42 28 -47 55 -10 2399 -1 2409 9 6 6 9 19 7
29 -3 18 -44 19 -1221 22 -1076 2 -1218 0 -1223 -13z"/>
<path d="M1680 6720 c-13 -8 -15 -76 -18 -495 -2 -474 -2 -485 18 -505 20 -20
30 -20 1626 -20 1087 0 1612 3 1625 10 18 10 19 27 19 503 0 370 -3 496 -12
505 -15 15 -3234 17 -3258 2z m1633 -7 l-1623 -3 0 -490 0 -490 1620 0 1620 0
3 485 2 485 0 -487 0 -488 -1625 0 -1625 0 -3 485 c-1 267 0 491 3 498 3 9
336 11 1627 10 l1623 -3 -1622 -2z"/>
<path d="M8369 8605 c-87 -16 -159 -43 -239 -87 -67 -37 -142 -97 -135 -107 2
-5 -5 -17 -18 -27 l-22 -19 19 23 c11 12 14 22 9 22 -15 0 -100 -106 -144
-179 -115 -190 -130 -456 -38 -677 28 -67 69 -135 55 -91 -7 24 1 21 15 -4 9
-17 8 -20 -2 -14 -25 16 1 -26 91 -145 50 -66 95 -119 101 -117 6 1 22 -14 36
-33 l26 -35 -31 35 c-52 59 -36 24 29 -61 35 -46 65 -77 71 -73 7 4 8 2 4 -4
-8 -14 81 -135 94 -127 4 3 14 -3 21 -13 13 -15 12 -16 -3 -3 -35 26 -17 -2
78 -125 101 -131 122 -145 157 -106 19 21 22 37 5 26 -7 -4 -8 -3 -4 5 4 6 11
9 16 6 13 -8 102 113 94 127 -4 6 -3 8 4 4 6 -4 36 27 71 73 62 82 75 104 44
80 -16 -13 -17 -12 -4 3 7 10 17 16 21 13 7 -5 100 107 100 120 0 4 -8 1 -17
-6 -16 -13 -17 -12 -4 3 7 10 17 16 21 13 7 -5 150 177 150 191 0 4 -7 0 -17
-7 -15 -13 -15 -12 -2 8 7 13 16 18 20 12 3 -5 25 15 47 45 44 57 51 72 30 60
-8 -4 -10 -3 -5 2 5 5 13 9 19 9 17 0 76 113 104 200 36 109 44 279 19 391
-26 118 -117 304 -134 275 -4 -6 -12 -1 -20 12 -13 20 -13 21 2 8 10 -7 17 -9
17 -4 0 13 -35 45 -41 38 -3 -2 -23 13 -44 35 -22 22 -35 40 -30 40 4 0 0 9
-10 20 -22 25 -43 27 -24 3 13 -16 12 -17 -3 -4 -10 7 -16 17 -13 21 12 20
-139 100 -243 129 -98 27 -248 34 -343 16z m74 -12 c-7 -2 -21 -2 -30 0 -10 3
-4 5 12 5 17 0 24 -2 18 -5z m155 0 c-10 -2 -28 -2 -40 0 -13 2 -5 4 17 4 22
1 32 -1 23 -4z m-231 -9 c-3 -3 -12 -4 -19 -1 -8 3 -5 6 6 6 11 1 17 -2 13 -5z
m296 -1 c-7 -2 -19 -2 -25 0 -7 3 -2 5 12 5 14 0 19 -2 13 -5z m97 -23 c8 -5
11 -10 5 -10 -5 0 -17 5 -25 10 -8 5 -10 10 -5 10 6 0 17 -5 25 -10z m-830
-234 c0 -2 -8 -10 -17 -17 -16 -13 -17 -12 -4 4 13 16 21 21 21 13z m-80 -116
c-6 -11 -13 -20 -16 -20 -2 0 0 9 6 20 6 11 13 20 16 20 2 0 0 -9 -6 -20z
m727 -36 c-3 -3 -12 -4 -19 -1 -8 3 -5 6 6 6 11 1 17 -2 13 -5z m623 -29 c0
-5 -5 -3 -10 5 -5 8 -10 20 -10 25 0 6 5 3 10 -5 5 -8 10 -19 10 -25z m-783
19 c-3 -3 -12 -4 -19 -1 -8 3 -5 6 6 6 11 1 17 -2 13 -5z m193 -21 c66 -21
143 -89 177 -156 52 -103 38 -231 -35 -324 -21 -26 -37 -53 -35 -58 2 -6 -11
-19 -29 -29 l-33 -18 30 26 c17 14 25 25 18 26 -6 0 -14 -4 -17 -9 -12 -18
-97 -51 -149 -57 -64 -8 -145 13 -201 51 -21 14 -42 23 -47 19 -5 -3 -8 0 -7
8 2 7 -3 12 -10 10 -8 -1 -11 1 -8 6 3 5 -6 24 -19 44 -117 172 -30 406 175
469 44 13 136 9 190 -8z m-340 -66 c0 -2 -10 -12 -22 -23 l-23 -19 19 23 c18
21 26 27 26 19z m-57 -82 c-9 -19 -18 -33 -21 -31 -4 5 26 66 33 66 3 0 -3
-16 -12 -35z m602 -16 c9 -17 15 -34 13 -39 -2 -5 -11 9 -20 30 -20 47 -15 53
7 9z m-1048 -11 c-3 -7 -5 -2 -5 12 0 14 2 19 5 13 2 -7 2 -19 0 -25z m1480
-5 c-3 -10 -5 -4 -5 12 0 17 2 24 5 18 2 -7 2 -21 0 -30z m-410 -140 c-2 -21
-4 -6 -4 32 0 39 2 55 4 38 2 -18 2 -50 0 -70z m420 15 c-2 -18 -4 -6 -4 27 0
33 2 48 4 33 2 -15 2 -42 0 -60z m-1500 -5 c-2 -16 -4 -3 -4 27 0 30 2 43 4
28 2 -16 2 -40 0 -55z m420 55 c-3 -8 -6 -5 -6 6 -1 11 2 17 5 13 3 -3 4 -12
1 -19z m0 -70 c-2 -13 -4 -5 -4 17 -1 22 1 32 4 23 2 -10 2 -28 0 -40z m10
-50 c-3 -8 -6 -5 -6 6 -1 11 2 17 5 13 3 -3 4 -12 1 -19z m1060 -40 c-3 -7 -5
-2 -5 12 0 14 2 19 5 13 2 -7 2 -19 0 -25z m-1480 0 c-3 -8 -6 -5 -6 6 -1 11
2 17 5 13 3 -3 4 -12 1 -19z m10 -50 c-3 -7 -5 -2 -5 12 0 14 2 19 5 13 2 -7
2 -19 0 -25z m1450 -40 c-3 -8 -6 -5 -6 6 -1 11 2 17 5 13 3 -3 4 -12 1 -19z
m-672 -113 c6 -2 -17 -3 -50 -4 -33 0 -69 4 -80 8 -19 8 107 4 130 -4z m-707
-30 c-3 -3 -9 2 -12 12 -6 14 -5 15 5 6 7 -7 10 -15 7 -18z m1312 -15 c-6 -11
-13 -20 -16 -20 -2 0 0 9 6 20 6 11 13 20 16 20 2 0 0 -9 -6 -20z m-1169 -187
c13 -16 12 -17 -3 -4 -10 7 -18 15 -18 17 0 8 8 3 21 -13z m987 -65 c-14 -18
-30 -34 -35 -35 -6 -2 3 12 20 31 40 45 48 47 15 4z m-804 -174 c3 -8 2 -12
-4 -9 -6 3 -10 10 -10 16 0 14 7 11 14 -7z m77 -101 c13 -16 12 -17 -3 -4 -10
7 -18 15 -18 17 0 8 8 3 21 -13z m439 -107 c0 -2 -8 -10 -17 -17 -16 -13 -17
-12 -4 4 13 16 21 21 21 13z m-269 -113 c13 -16 12 -17 -3 -4 -10 7 -18 15
-18 17 0 8 8 3 21 -13z m94 -96 c19 -4 19 -5 -1 -6 -11 0 -29 9 -40 22 -19 22
-19 22 1 6 11 -10 29 -19 40 -22z"/>
<path d="M9040 8385 c18 -19 36 -32 39 -30 6 7 -50 65 -63 65 -5 0 5 -16 24
-35z"/>
<path d="M8620 6089 c-297 -29 -306 -30 -327 -55 -13 -14 -23 -38 -23 -54 0
-16 10 -40 23 -54 21 -23 32 -26 196 -40 96 -9 175 -17 176 -18 2 -2 -193
-202 -433 -446 l-437 -443 -393 1 c-343 0 -398 -2 -428 -16 -44 -21 -1125
-1115 -1142 -1157 -31 -72 31 -157 116 -157 l47 0 545 545 545 545 390 0 c348
0 394 2 426 18 23 10 209 193 489 480 249 254 454 461 455 460 2 -2 8 -75 14
-163 11 -151 13 -161 37 -182 16 -14 38 -23 59 -23 21 0 43 8 59 23 24 22 24
25 46 375 22 339 22 353 5 372 -24 26 -61 25 -445 -11z"/>
<path d="M8695 4848 c-3 -7 -6 -164 -7 -348 l-3 -335 -364 -3 c-249 -1 -369
-6 -378 -13 -10 -9 -13 -79 -13 -345 l0 -334 -368 0 c-273 0 -371 -3 -380 -12
-9 -9 -12 -99 -12 -345 l0 -333 -377 -2 -378 -3 -3 -342 -2 -343 -344 0 c-300
0 -347 -2 -360 -16 -19 -19 -20 -26 -4 -42 17 -17 3519 -17 3536 0 17 17 17
2799 0 2816 -18 18 -537 17 -543 0z m485 -1403 l0 -1355 -1350 0 -1350 0 0
310 0 310 363 0 c269 0 366 3 375 12 9 9 12 99 12 345 l0 333 373 0 c277 0
376 3 385 12 9 9 12 100 12 350 l0 338 373 2 372 3 3 335 c1 184 4 341 7 348
3 9 56 12 215 12 l210 0 0 -1355z"/>
<path d="M1391 4486 c-53 -19 -111 -74 -137 -130 -23 -49 -24 -60 -24 -290 0
-152 4 -253 12 -277 15 -51 69 -114 122 -142 41 -22 41 -22 771 -27 402 -3
721 -9 710 -13 -39 -16 -49 -24 -69 -51 -20 -26 -21 -44 -24 -267 -3 -222 -2
-244 16 -280 l19 -39 -623 0 -624 0 0 315 c0 221 -3 315 -11 315 -8 0 -10 -92
-7 -314 l4 -314 -105 -4 c-91 -3 -114 -7 -163 -31 -61 -30 -105 -74 -140 -140
-22 -40 -23 -54 -26 -320 -4 -318 1 -343 70 -422 22 -25 64 -58 92 -73 l51
-27 1851 -3 1851 -2 27 21 c20 16 26 29 26 59 0 47 -35 80 -86 80 l-34 0 0
345 0 345 40 0 c59 0 80 25 80 98 0 70 -19 102 -61 102 l-29 0 0 269 0 270 43
3 c39 3 42 5 42 33 l0 30 -240 5 c-132 3 -228 7 -214 8 64 5 99 104 50 143
-13 11 -34 19 -47 19 l-24 0 0 280 c0 238 2 280 15 280 29 0 64 23 76 51 14
34 -2 84 -32 99 -28 16 -3205 12 -3248 -4z m3119 -426 l0 -280 -697 0 c-429 0
-712 4 -734 10 -19 5 -48 24 -65 41 l-29 30 -3 192 c-2 179 -1 194 18 225 39
63 14 61 798 62 l712 0 0 -280z m208 -457 c330 -6 333 -6 330 -27 -2 -17 -11
-22 -45 -24 l-43 -3 0 -275 c0 -267 0 -274 -20 -274 -20 0 -20 7 -20 270 0
207 -3 272 -12 275 -7 3 -159 6 -338 8 -251 1 -325 5 -326 15 -1 6 -2 17 -3
22 0 6 -41 11 -93 12 -86 2 -83 3 42 8 74 3 149 5 165 3 17 -2 180 -6 363 -10z
m-1710 0 c-21 -2 -55 -2 -75 0 -21 2 -4 4 37 4 41 0 58 -2 38 -4z m75 0 c-7
-2 -19 -2 -25 0 -7 3 -2 5 12 5 14 0 19 -2 13 -5z m245 0 c-43 -2 -113 -2
-155 0 -43 1 -8 3 77 3 85 0 120 -2 78 -3z m364 0 c-51 -2 -132 -2 -180 0 -48
1 -6 3 93 3 99 0 138 -2 87 -3z m216 0 c-21 -2 -55 -2 -75 0 -21 2 -4 4 37 4
41 0 58 -2 38 -4z m105 0 c-13 -2 -33 -2 -45 0 -13 2 -3 4 22 4 25 0 35 -2 23
-4z m897 -333 l1 -270 -1022 0 c-937 0 -1024 1 -1041 17 -16 15 -18 36 -18
251 0 205 2 238 17 254 15 17 61 18 1039 18 l1022 0 2 -270z m-28 -817 l3
-348 -995 5 -995 5 -36 22 c-19 12 -41 34 -47 48 -8 18 -12 107 -12 278 0 278
0 279 64 318 30 18 64 19 1023 19 l992 0 3 -347z m45 -349 c-3 -3 -12 -4 -19
-1 -8 3 -5 6 6 6 11 1 17 -2 13 -5z"/>
<path d="M646 2287 c-49 -28 -75 -62 -87 -116 -18 -81 20 -158 95 -192 122
-56 256 25 256 155 0 45 -25 114 -37 102 -9 -8 -44 25 -37 35 9 15 -54 39
-103 39 -31 0 -62 -8 -87 -23z m102 6 c-10 -2 -26 -2 -35 0 -10 3 -2 5 17 5
19 0 27 -2 18 -5z m-150 -78 c-6 -14 -13 -23 -15 -21 -5 5 15 46 22 46 3 0 -1
-11 -7 -25z m-21 -97 c-2 -13 -4 -5 -4 17 -1 22 1 32 4 23 2 -10 2 -28 0 -40z
m320 -5 c-3 -10 -5 -2 -5 17 0 19 2 27 5 18 2 -10 2 -26 0 -35z m-16 -50 c-12
-20 -14 -14 -5 12 4 9 9 14 11 11 3 -2 0 -13 -6 -23z m-84 -79 c-3 -3 -12 -4
-19 -1 -8 3 -5 6 6 6 11 1 17 -2 13 -5z m-50 -10 c-3 -3 -12 -4 -19 -1 -8 3
-5 6 6 6 11 1 17 -2 13 -5z"/>
<path d="M850 2255 c7 -9 15 -13 17 -11 7 7 -7 26 -19 26 -6 0 -6 -6 2 -15z"/>
</g>
</svg>
